<svg width="10642" height="3290" viewBox="0 0 10642 3290" fill="none" xmlns="http://www.w3.org/2000/svg">
<path d="M1134.38 538.002C1051.88 342.932 823.125 425.98 782.358 538.002C741.591 650.023 734.319 2710.12 782.358 2801.96C830.396 2893.8 1103.82 2922.63 1134.38 2801.96C1164.94 2681.29 1164.94 1886.19 1164.94 1886.19C1312.03 1834.83 1438.87 1907.69 1438.87 1907.69C1438.87 1907.69 1612.2 2075.54 1709.4 2195.22C1884.67 2411.03 1866.31 2686 2081.8 2801.96C2297.28 2917.91 2602.8 2893.56 2812.2 2801.96C3021.61 2710.36 3133.35 2408.03 3133.35 2286.91C3133.35 2165.78 3171.83 1976.63 2859.42 1746.87C2669.26 1607.01 2585.5 1553.38 2430.43 1417.55C2275.35 1281.71 2342.14 961.361 2481.47 868.539C2646.37 758.679 2907.35 733.788 2977.85 892.788C3048.35 1051.79 3097.44 989.661 3097.44 989.661C3133.35 950.041 3204.98 581.017 2869.61 473.479C2534.24 365.942 2374.59 454.079 2269.85 514.23C2165.12 574.382 1881.85 921.788 1804.35 1299.29V1370.29C1987.51 1083.98 1905.7 971.549 2142.11 799.489C2213.65 747.418 2224.35 738.288 2269.85 731.788C2315.36 725.288 2361.45 756.689 2374.15 799.489C2386.85 842.288 2322.35 908.788 2269.85 950.041C2217.36 991.295 2013.65 1264.63 1903.85 1398.29C1903.85 1416.27 2036.58 1455.37 2062.35 1537.29C2106.39 1677.29 2400.18 1718.65 2534.88 1792.23C2669.58 1865.81 2713.72 1950.71 2713.72 1950.71C2756.07 1915.75 2780.55 1897.7 2848.42 1915.62C2893.08 1953.85 2901.51 1977.45 2906.15 2020.89C2899.37 2100.42 2870 2119.35 2812.2 2147.67C2823.54 2197.68 2793.28 2213.33 2779.37 2235.97C2740.49 2299.28 2645.66 2286.91 2724.72 2411.42C2758.53 2464.67 2756.26 2460.48 2724.72 2506.51C2430.42 2538.21 2303.81 2543.87 2190.62 2506.51C2077.43 2469.16 2190.62 2411.42 2190.62 2411.42C2260.77 2399.99 2346.59 2385.2 2387.73 2331.05C2444.01 2178.24 2372.7 2276.72 2269.85 2235.97C2167.01 2195.22 2064.82 2085.41 2064.82 2085.41C2064.82 2085.41 2094.25 2154.47 2081.8 2195.22C2069.34 2235.97 1975.4 2268.8 1910.88 2235.97C1846.36 2203.14 1773.75 2057.12 1890.5 2011.84C2006.88 1966.7 1957.6 1854.08 1949.44 1835.42L1949.36 1835.25C1941.44 1817.14 1975.4 1840.91 1789.76 1886.19C1604.13 1931.47 1497.73 1702.81 1497.73 1702.81C1497.73 1702.81 1480.75 1694.88 1471.69 1653C1462.64 1611.12 1531.69 1607.72 1531.69 1607.72C1531.69 1511.5 1574.7 1466.13 1604.13 1443.58C1633.56 1421.03 1649.4 1427.82 1734.3 1384.81C1636.14 967.021 1798.94 783.788 1804.35 768.288C1809.76 752.788 1922.39 544.558 2037.85 602.288C2098.97 620.4 2087.45 696.263 2087.45 696.263C2087.45 696.263 1858.35 1007.79 1804.35 1299.29C1869.43 982.288 2087.45 696.263 2087.45 696.263C2097.85 706.288 2113.65 725.909 2142.11 661.387C2142.11 611.288 2154.33 564.283 2064.82 473.479C1975.3 382.676 1775.05 412.788 1734.3 412.788C1693.55 412.788 1575.89 468.599 1497.73 538.002C1302.64 711.225 1424.15 1059.93 1357.37 1191.15C1290.59 1322.37 1309.83 1322.55 1164.94 1491.13C1139.3 1468.93 1216.88 733.071 1134.38 538.002Z" fill="#604AEC"/>
<path d="M4297.1 2226.2C4304.57 2240.2 4305.03 2254.2 4298.5 2268.2C4293.83 2283.13 4285.9 2294.33 4274.7 2301.8C4269.1 2306.47 4263.97 2310.67 4259.3 2314.4C4254.63 2317.2 4249.5 2319.53 4243.9 2321.4C4233.63 2327 4221.5 2328.87 4207.5 2327C4201.9 2327 4196.77 2326.07 4192.1 2324.2C4187.43 2322.33 4182.77 2320 4178.1 2317.2C4173.43 2314.4 4168.3 2311.6 4162.7 2308.8C4158.03 2305.07 4153.37 2301.33 4148.7 2297.6C4143.1 2292.93 4137.97 2288.73 4133.3 2285C4128.63 2281.27 4124.43 2277.07 4120.7 2272.4C4116.03 2267.73 4111.83 2263.07 4108.1 2258.4C4104.37 2253.73 4100.63 2249.53 4096.9 2245.8L4080.1 2227.6L3811.3 1946.2L3815.5 2227.6V2240.2C3815.5 2243.93 3815.03 2248.13 3814.1 2252.8C3813.17 2256.53 3812.23 2260.73 3811.3 2265.4C3808.5 2277.53 3805.23 2288.27 3801.5 2297.6C3799.63 2303.2 3796.83 2307.87 3793.1 2311.6C3790.3 2315.33 3787.03 2319.07 3783.3 2322.8C3773.03 2332.13 3760.9 2337.27 3746.9 2338.2C3732.9 2342.87 3719.83 2344.27 3707.7 2342.4C3696.5 2341.47 3684.83 2338.2 3672.7 2332.6C3663.37 2327 3654.97 2317.67 3647.5 2304.6C3645.63 2300.87 3644.23 2298.53 3643.3 2297.6C3643.3 2296.67 3642.37 2293.4 3640.5 2287.8C3634.9 2278.47 3632.1 2269.13 3632.1 2259.8C3631.17 2254.2 3630.23 2249.07 3629.3 2244.4C3629.3 2239.73 3628.83 2234.6 3627.9 2229C3626.97 2225.27 3626.5 2221.53 3626.5 2217.8C3626.5 2214.07 3626.5 2210.33 3626.5 2206.6C3627.43 2201.93 3627.9 2198.2 3627.9 2195.4C3627.9 2191.67 3627.9 2187.47 3627.9 2182.8L3626.5 2072.2L3625.1 1866.4C3625.1 1806.67 3623.7 1742.27 3620.9 1673.2C3619.97 1639.6 3619.5 1609.73 3619.5 1583.6C3619.5 1557.47 3619.97 1528.07 3620.9 1495.4V1489.8C3622.77 1479.53 3623.7 1469.73 3623.7 1460.4C3623.7 1450.13 3624.17 1440.33 3625.1 1431C3625.1 1412.33 3629.3 1393.67 3637.7 1375C3643.3 1361 3653.1 1349.8 3667.1 1341.4C3674.57 1336.73 3681.57 1333.93 3688.1 1333C3695.57 1331.13 3703.5 1329.27 3711.9 1327.4C3718.43 1327.4 3724.5 1327.87 3730.1 1328.8C3736.63 1329.73 3742.7 1330.67 3748.3 1331.6C3760.43 1333.47 3771.63 1338.6 3781.9 1347C3784.7 1349.8 3787.03 1353.07 3788.9 1356.8C3791.7 1360.53 3794.03 1365.2 3795.9 1370.8C3800.57 1378.27 3803.83 1389 3805.7 1403C3806.63 1408.6 3807.1 1414.2 3807.1 1419.8C3808.03 1425.4 3808.5 1431.47 3808.5 1438V1495.4L3809.9 1666.2C3824.83 1653.13 3839.3 1639.6 3853.3 1625.6C3868.23 1611.6 3882.7 1596.67 3896.7 1580.8C3921.9 1554.67 3946.63 1529.47 3970.9 1505.2C3996.1 1480 4021.3 1455.27 4046.5 1431L4050.7 1426.8C4058.17 1419.33 4065.63 1412.33 4073.1 1405.8C4081.5 1398.33 4089.43 1391.33 4096.9 1384.8C4110.9 1368.93 4128.17 1357.73 4148.7 1351.2C4161.77 1342.8 4177.17 1339.53 4194.9 1341.4C4203.3 1342.33 4210.77 1344.2 4217.3 1347C4224.77 1349.8 4231.77 1353.53 4238.3 1358.2C4242.97 1362.87 4247.63 1367.07 4252.3 1370.8C4256.97 1373.6 4260.7 1377.33 4263.5 1382C4270.97 1388.53 4275.63 1398.33 4277.5 1411.4C4277.5 1421.67 4275.63 1431 4271.9 1439.4C4269.1 1444.07 4266.3 1448.73 4263.5 1453.4C4260.7 1458.07 4257.43 1462.73 4253.7 1467.4C4249.03 1473 4244.83 1478.13 4241.1 1482.8C4237.37 1487.47 4233.17 1492.13 4228.5 1496.8C4224.77 1501.47 4220.57 1505.67 4215.9 1509.4C4212.17 1513.13 4208.43 1517.33 4204.7 1522L4186.5 1540.2L3924.7 1807.6C3938.7 1821.6 3953.17 1836.53 3968.1 1852.4C3983.97 1867.33 3998.9 1882.27 4012.9 1897.2C4026.9 1911.2 4039.97 1924.73 4052.1 1937.8C4064.23 1949.93 4074.5 1960.2 4082.9 1968.6C4108.1 1994.73 4132.37 2020.87 4155.7 2047C4179.03 2072.2 4201.9 2097.87 4224.3 2124L4228.5 2128.2C4235.97 2135.67 4242.97 2143.6 4249.5 2152C4256.03 2159.47 4262.1 2166.93 4267.7 2174.4C4281.7 2190.27 4291.5 2207.53 4297.1 2226.2ZM4592.97 1796.4C4592.97 1822.53 4592.97 1851.93 4592.97 1884.6C4593.9 1917.27 4594.37 1951.33 4594.37 1986.8C4594.37 2021.33 4594.37 2055.87 4594.37 2090.4C4594.37 2124 4593.9 2155.27 4592.97 2184.2C4592.04 2198.2 4590.64 2213.6 4588.77 2230.4C4586.9 2246.27 4583.17 2261.2 4577.57 2275.2C4571.97 2289.2 4563.1 2300.87 4550.97 2310.2C4539.77 2318.6 4524.37 2322.33 4504.77 2321.4C4475.84 2319.53 4454.84 2306.93 4441.77 2283.6C4429.64 2260.27 4422.64 2227.6 4420.77 2185.6C4420.77 2164.13 4420.3 2139.4 4419.37 2111.4C4419.37 2083.4 4418.9 2054.93 4417.97 2026C4417.97 1997.07 4417.97 1969.07 4417.97 1942C4417.97 1914 4417.97 1888.8 4417.97 1866.4C4417.97 1853.33 4417.5 1837.47 4416.57 1818.8C4416.57 1800.13 4417.04 1781 4417.97 1761.4C4418.9 1741.8 4421.24 1723.13 4424.97 1705.4C4428.7 1686.73 4434.77 1671.33 4443.17 1659.2C4449.7 1651.73 4459.04 1646.13 4471.17 1642.4C4483.3 1637.73 4495.9 1635.4 4508.97 1635.4C4522.97 1635.4 4536.04 1637.73 4548.17 1642.4C4561.24 1647.07 4570.57 1653.6 4576.17 1662C4579.9 1667.6 4582.7 1675.53 4584.57 1685.8C4586.44 1696.07 4587.84 1707.73 4588.77 1720.8C4590.64 1732.93 4591.57 1746 4591.57 1760C4592.5 1773.07 4592.97 1785.2 4592.97 1796.4ZM4539.77 1513.6C4510.84 1521.07 4486.57 1518.27 4466.97 1505.2C4448.3 1491.2 4436.64 1470.67 4431.97 1443.6C4428.24 1424 4429.64 1406.73 4436.17 1391.8C4442.7 1376.87 4452.5 1365.67 4465.57 1358.2C4478.64 1349.8 4493.57 1346.07 4510.37 1347C4527.17 1347.93 4543.97 1354.47 4560.77 1366.6C4576.64 1377.8 4587.84 1390.87 4594.37 1405.8C4601.84 1420.73 4604.17 1435.2 4601.37 1449.2C4599.5 1463.2 4593.44 1476.27 4583.17 1488.4C4572.9 1499.6 4558.44 1508 4539.77 1513.6ZM5152.78 1348.4C5170.52 1343.73 5185.92 1343.27 5198.98 1347C5212.98 1349.8 5224.65 1355.87 5233.98 1365.2C5244.25 1374.53 5251.72 1386.2 5256.38 1400.2C5261.98 1414.2 5264.78 1429.6 5264.78 1446.4C5265.72 1493.07 5265.72 1529.47 5264.78 1555.6C5264.78 1581.73 5264.78 1604.6 5264.78 1624.2V2054C5264.78 2104.4 5264.78 2146.4 5264.78 2180C5264.78 2213.6 5262.92 2241.13 5259.18 2262.6C5256.38 2283.13 5250.78 2298.53 5242.38 2308.8C5234.92 2319.07 5223.25 2326.07 5207.38 2329.8C5191.52 2334.47 5170.52 2336.8 5144.38 2336.8C5119.18 2336.8 5087.45 2336.8 5049.18 2336.8C4948.38 2336.8 4868.58 2313 4809.78 2265.4C4751.92 2217.8 4721.12 2142.2 4717.38 2038.6C4715.52 1993.8 4721.12 1952.73 4734.18 1915.4C4747.25 1878.07 4766.38 1846.33 4791.58 1820.2C4817.72 1793.13 4849.45 1772.6 4886.78 1758.6C4925.05 1743.67 4968.45 1736.67 5016.98 1737.6H5093.98V1487C5093.98 1472.07 5093.98 1457.6 5093.98 1443.6C5093.98 1428.67 5095.38 1415.13 5098.18 1403C5100.98 1389.93 5106.58 1378.73 5114.98 1369.4C5123.38 1360.07 5135.98 1353.07 5152.78 1348.4ZM4909.18 2125.4C4928.78 2152.47 4964.25 2167.4 5015.58 2170.2C5025.85 2171.13 5035.65 2171.6 5044.98 2171.6C5054.32 2170.67 5062.72 2169.27 5070.18 2167.4C5078.58 2166.47 5086.52 2165.07 5093.98 2163.2V1904.2C5061.32 1898.6 5031.45 1895.33 5004.38 1894.4C4978.25 1892.53 4952.12 1901.87 4925.98 1922.4C4911.98 1933.6 4901.25 1948.07 4893.78 1965.8C4886.32 1982.6 4882.12 2000.8 4881.18 2020.4C4880.25 2039.07 4882.12 2057.73 4886.78 2076.4C4891.45 2095.07 4898.92 2111.4 4909.18 2125.4ZM6102.9 1919.6C6107.57 1932.67 6110.84 1947.6 6112.7 1964.4C6115.5 1980.27 6116.9 1996.6 6116.9 2013.4C6116.9 2030.2 6115.5 2047 6112.7 2063.8C6110.84 2079.67 6108.04 2093.67 6104.3 2105.8C6089.37 2158.07 6059.5 2201.93 6014.7 2237.4C5969.9 2271.93 5918.57 2297.13 5860.7 2313C5803.77 2328.87 5744.5 2334.47 5682.9 2329.8C5622.24 2325.13 5568.1 2309.73 5520.5 2283.6C5490.64 2266.8 5464.97 2246.27 5443.5 2222C5422.04 2197.73 5403.84 2170.67 5388.9 2140.8C5383.3 2130.53 5379.57 2118.87 5377.7 2105.8C5376.77 2091.8 5378.17 2078.73 5381.9 2066.6C5385.64 2053.53 5391.7 2042.33 5400.1 2033C5408.5 2022.73 5420.17 2015.73 5435.1 2012C5444.44 2010.13 5454.7 2009.2 5465.9 2009.2C5478.04 2009.2 5489.7 2011.07 5500.9 2014.8C5512.1 2017.6 5522.37 2022.73 5531.7 2030.2C5541.04 2036.73 5548.5 2046.07 5554.1 2058.2C5564.37 2077.8 5578.84 2096 5597.5 2112.8C5617.1 2128.67 5637.64 2141.73 5659.1 2152C5689.9 2162.27 5720.7 2166.47 5751.5 2164.6C5783.24 2162.73 5811.7 2155.73 5836.9 2143.6C5863.04 2131.47 5884.04 2115.13 5899.9 2094.6C5915.77 2073.13 5923.7 2048.87 5923.7 2021.8C5923.7 1999.4 5920.44 1981.2 5913.9 1967.2C5907.37 1952.27 5898.04 1940.13 5885.9 1930.8C5874.7 1920.53 5860.7 1912.13 5843.9 1905.6C5828.04 1899.07 5810.3 1893.47 5790.7 1888.8C5768.3 1884.13 5745.44 1880.87 5722.1 1879C5699.7 1877.13 5676.84 1874.8 5653.5 1872C5630.17 1869.2 5607.3 1865.47 5584.9 1860.8C5562.5 1856.13 5540.57 1849.13 5519.1 1839.8C5476.17 1822.07 5443.5 1795 5421.1 1758.6C5398.7 1722.2 5385.17 1683 5380.5 1641C5376.77 1599 5381.9 1557.47 5395.9 1516.4C5409.9 1474.4 5432.3 1438.47 5463.1 1408.6C5492.97 1381.53 5528.44 1362.4 5569.5 1351.2C5611.5 1339.07 5657.7 1332.07 5708.1 1330.2C5736.1 1329.27 5764.1 1330.2 5792.1 1333C5821.04 1335.8 5848.57 1340.47 5874.7 1347C5901.77 1353.53 5926.5 1361.93 5948.9 1372.2C5972.24 1382.47 5992.3 1394.6 6009.1 1408.6C6021.24 1417.93 6033.37 1430.53 6045.5 1446.4C6057.64 1461.33 6066.97 1477.67 6073.5 1495.4C6080.04 1512.2 6081.9 1528.53 6079.1 1544.4C6077.24 1560.27 6067.44 1573.8 6049.7 1585C6034.77 1594.33 6020.3 1598.53 6006.3 1597.6C5993.24 1595.73 5980.64 1591.53 5968.5 1585C5956.37 1577.53 5944.7 1569.13 5933.5 1559.8C5922.3 1550.47 5912.04 1542.07 5902.7 1534.6C5877.5 1515.93 5846.24 1503.33 5808.9 1496.8C5771.57 1490.27 5736.57 1488.87 5703.9 1492.6C5683.37 1495.4 5664.24 1500.07 5646.5 1506.6C5628.77 1513.13 5613.37 1522 5600.3 1533.2C5588.17 1544.4 5578.37 1558.4 5570.9 1575.2C5564.37 1591.07 5562.04 1609.27 5563.9 1629.8C5564.84 1644.73 5569.04 1657.33 5576.5 1667.6C5584.9 1677.87 5594.7 1686.27 5605.9 1692.8C5618.04 1699.33 5631.1 1704.47 5645.1 1708.2C5659.1 1711.93 5673.1 1714.73 5687.1 1716.6C5729.1 1722.2 5771.1 1726.4 5813.1 1729.2C5855.1 1732 5896.17 1741.33 5936.3 1757.2C5977.37 1773.07 6012.37 1794.53 6041.3 1821.6C6070.24 1848.67 6090.77 1881.33 6102.9 1919.6ZM6752.07 1709.6C6759.53 1727.33 6760 1746.93 6753.47 1768.4C6747.87 1789.87 6737.13 1803.87 6721.27 1810.4C6712.87 1814.13 6701.67 1817.4 6687.67 1820.2C6673.67 1822.07 6658.27 1823.93 6641.47 1825.8C6625.6 1827.67 6609.73 1829.07 6593.87 1830C6578 1830.93 6564.47 1831.4 6553.27 1831.4C6554.2 1859.4 6555.13 1888.33 6556.07 1918.2C6557 1947.13 6557.93 1975.6 6558.87 2003.6C6559.8 2031.6 6560.27 2058.67 6560.27 2084.8C6560.27 2110 6559.8 2132.87 6558.87 2153.4C6558.87 2167.4 6558.87 2183.73 6558.87 2202.4C6558.87 2220.13 6557.47 2237.4 6554.67 2254.2C6552.8 2271 6549.53 2285.93 6544.87 2299C6540.2 2311.13 6533.2 2319.07 6523.87 2322.8C6494.93 2334.93 6468.33 2338.2 6444.07 2332.6C6420.73 2327.93 6403.93 2318.13 6393.67 2303.2C6386.2 2291.07 6380.6 2277.07 6376.87 2261.2C6373.13 2244.4 6370.33 2227.6 6368.47 2210.8C6367.53 2193.07 6367.07 2176.27 6367.07 2160.4C6368 2143.6 6368.47 2129.13 6368.47 2117C6369.4 2077.8 6369.87 2033.47 6369.87 1984C6370.8 1933.6 6371.27 1883.2 6371.27 1832.8H6350.27C6339.07 1832.8 6324.6 1832.8 6306.87 1832.8C6290.07 1831.87 6272.8 1830.47 6255.07 1828.6C6238.27 1825.8 6222.4 1822.53 6207.47 1818.8C6192.53 1814.13 6181.8 1807.6 6175.27 1799.2C6165 1787.07 6158.47 1774 6155.67 1760C6153.8 1746 6154.73 1732.93 6158.47 1720.8C6163.13 1707.73 6170.13 1696.53 6179.47 1687.2C6188.8 1676.93 6199.53 1670.4 6211.67 1667.6C6228.47 1662.93 6252.27 1660.6 6283.07 1660.6C6313.87 1659.67 6342.8 1659.67 6369.87 1660.6C6368.93 1651.27 6368.47 1642.4 6368.47 1634C6368.47 1624.67 6368 1615.8 6367.07 1607.4C6366.13 1596.2 6365.67 1582.2 6365.67 1565.4C6365.67 1547.67 6366.6 1530.4 6368.47 1513.6C6371.27 1495.87 6375.47 1479.53 6381.07 1464.6C6386.67 1448.73 6394.6 1436.6 6404.87 1428.2C6418.87 1417 6432.87 1410.93 6446.87 1410C6461.8 1408.13 6475.33 1410 6487.47 1415.6C6500.53 1421.2 6511.27 1429.6 6519.67 1440.8C6529 1451.07 6535.53 1462.73 6539.27 1475.8C6542.07 1487 6544.4 1500.53 6546.27 1516.4C6548.13 1531.33 6549.07 1547.2 6549.07 1564C6550 1580.8 6550.47 1597.6 6550.47 1614.4C6550.47 1631.2 6550.47 1646.6 6550.47 1660.6H6564.47C6578.47 1660.6 6594.8 1660.13 6613.47 1659.2C6632.13 1658.27 6650.33 1658.73 6668.07 1660.6C6686.73 1662.47 6703.53 1667.13 6718.47 1674.6C6733.4 1681.13 6744.6 1692.8 6752.07 1709.6ZM7468.15 1702.6C7476.55 1715.67 7480.29 1729.67 7479.35 1744.6C7479.35 1766.07 7475.62 1784.73 7468.15 1800.6C7466.29 1805.27 7463.49 1811.33 7459.75 1818.8C7456.95 1826.27 7453.69 1834.2 7449.95 1842.6C7447.15 1851 7443.89 1858.93 7440.15 1866.4C7436.42 1873.87 7433.62 1879.47 7431.75 1883.2L7428.95 1890.2C7415.89 1919.13 7403.29 1947.13 7391.15 1974.2C7379.02 2001.27 7365.49 2030.2 7350.55 2061C7335.62 2090.87 7321.15 2120.27 7307.15 2149.2C7294.09 2177.2 7281.02 2204.73 7267.95 2231.8C7264.22 2239.27 7260.95 2246.73 7258.15 2254.2C7255.35 2260.73 7251.62 2267.73 7246.95 2275.2L7179.75 2419.4C7167.62 2443.67 7155.95 2467.47 7144.75 2490.8C7134.49 2514.13 7122.82 2537.47 7109.75 2560.8C7106.95 2565.47 7104.15 2569.67 7101.35 2573.4C7099.49 2578.07 7097.62 2582.73 7095.75 2587.4C7089.22 2598.6 7079.42 2609.33 7066.35 2619.6C7054.22 2630.8 7041.15 2636.87 7027.15 2637.8C7001.95 2639.67 6980.02 2632.2 6961.35 2615.4C6950.15 2608.87 6941.29 2599.53 6934.75 2587.4C6931.02 2579 6929.15 2568.27 6929.15 2555.2C6930.09 2549.6 6930.55 2544 6930.55 2538.4C6931.49 2533.73 6932.42 2529.07 6933.35 2524.4C6935.22 2519.73 6936.62 2515.07 6937.55 2510.4C6938.49 2505.73 6939.89 2502 6941.75 2499.2C6944.55 2491.73 6946.89 2488 6948.75 2488L7050.95 2266.8C7046.29 2256.53 7041.62 2246.27 7036.95 2236C7032.29 2224.8 7028.09 2215 7024.35 2206.6C7012.22 2177.67 6999.15 2147.33 6985.15 2115.6C6972.09 2082.93 6958.55 2050.73 6944.55 2019C6930.55 1986.33 6916.09 1954.6 6901.15 1923.8C6886.22 1893 6871.29 1863.6 6856.35 1835.6C6850.75 1826.27 6845.62 1816.47 6840.95 1806.2C6836.29 1795 6832.55 1784.27 6829.75 1774C6826.95 1762.8 6826.02 1751.6 6826.95 1740.4C6827.89 1729.2 6832.09 1718 6839.55 1706.8C6847.02 1692.8 6856.82 1683 6868.95 1677.4C6881.09 1670.87 6893.69 1668.07 6906.75 1669C6920.75 1669 6933.82 1671.8 6945.95 1677.4C6958.09 1683 6967.89 1690.47 6975.35 1699.8C6991.22 1716.6 7003.82 1735.27 7013.15 1755.8C7022.49 1776.33 7031.35 1797.33 7039.75 1818.8C7057.49 1856.13 7075.69 1895.33 7094.35 1936.4C7113.02 1977.47 7131.69 2017.6 7150.35 2056.8L7223.15 1902.8C7230.62 1887.87 7237.15 1873.4 7242.75 1859.4C7249.29 1845.4 7255.82 1831.87 7262.35 1818.8C7269.82 1802.93 7276.82 1786.6 7283.35 1769.8C7290.82 1753 7299.22 1737.6 7308.55 1723.6C7310.42 1719.87 7312.29 1716.6 7314.15 1713.8C7316.02 1711 7317.89 1707.73 7319.75 1704C7328.15 1692.8 7335.62 1683.93 7342.15 1677.4C7346.82 1673.67 7350.55 1670.87 7353.35 1669C7357.09 1666.2 7361.29 1664.33 7365.95 1663.4C7372.49 1661.53 7378.55 1660.6 7384.15 1660.6C7390.69 1659.67 7396.75 1659.67 7402.35 1660.6C7411.69 1663.4 7422.89 1667.6 7435.95 1673.2C7449.95 1678.8 7460.69 1688.6 7468.15 1702.6ZM7778.75 2215C7777.81 2219.67 7776.88 2224.33 7775.95 2229C7775.95 2232.73 7775.95 2236.93 7775.95 2241.6L7767.55 2271C7765.68 2274.73 7764.28 2277.07 7763.35 2278L7759.15 2286.4C7754.48 2296.67 7746.08 2305.07 7733.95 2311.6C7711.55 2322.8 7687.75 2325.6 7662.55 2320C7646.68 2318.13 7634.08 2313.47 7624.75 2306C7615.41 2299.47 7608.88 2291.53 7605.15 2282.2C7601.41 2272.87 7598.61 2263.53 7596.75 2254.2C7593.95 2244.87 7592.55 2236.47 7592.55 2229V1445C7592.55 1438.47 7592.55 1432.87 7592.55 1428.2C7593.48 1422.6 7594.41 1417.47 7595.35 1412.8C7596.28 1406.27 7597.21 1400.67 7598.15 1396C7600.01 1391.33 7601.88 1386.2 7603.75 1380.6C7606.55 1371.27 7611.68 1363.8 7619.15 1358.2C7630.35 1349.8 7641.08 1345.13 7651.35 1344.2C7657.88 1342.33 7663.95 1341.4 7669.55 1341.4C7675.15 1340.47 7681.68 1340 7689.15 1340C7702.21 1340 7717.15 1343.73 7733.95 1351.2C7747.01 1358.67 7756.35 1368.93 7761.95 1382C7771.28 1400.67 7775.95 1417.93 7775.95 1433.8C7776.88 1443.13 7777.35 1457.13 7777.35 1475.8C7778.28 1494.47 7778.75 1508.47 7778.75 1517.8V1523.4C7780.61 1553.27 7781.55 1582.2 7781.55 1610.2C7781.55 1637.27 7781.08 1667.13 7780.15 1699.8C7780.15 1731.53 7779.68 1762.33 7778.75 1792.2C7778.75 1821.13 7778.75 1850.07 7778.75 1879V2173C7778.75 2176.73 7778.75 2180.47 7778.75 2184.2C7779.68 2187 7780.15 2190.27 7780.15 2194C7780.15 2203.33 7779.68 2210.33 7778.75 2215ZM8377.73 2135.2C8388.93 2132.4 8400.13 2130.53 8411.33 2129.6C8423.46 2128.67 8434.19 2130.07 8443.53 2133.8C8453.79 2137.53 8462.19 2144.07 8468.73 2153.4C8475.26 2161.8 8478.53 2173.93 8478.53 2189.8C8478.53 2201 8475.73 2211.73 8470.13 2222C8464.53 2232.27 8457.53 2241.6 8449.13 2250C8440.73 2258.4 8431.39 2265.87 8421.13 2272.4C8410.86 2278 8401.06 2282.67 8391.73 2286.4C8364.66 2298.53 8333.39 2307.87 8297.93 2314.4C8263.39 2320.93 8227.46 2323.27 8190.13 2321.4C8139.73 2319.53 8091.19 2309.73 8044.53 2292C7998.79 2273.33 7962.86 2243 7936.73 2201C7912.46 2159.93 7897.99 2114.2 7893.33 2063.8C7888.66 2013.4 7890.99 1965.8 7900.33 1921C7910.59 1866.87 7927.86 1823 7952.13 1789.4C7977.33 1754.87 8007.19 1727.33 8041.73 1706.8C8083.73 1682.53 8130.86 1669.93 8183.13 1669C8235.39 1668.07 8285.33 1678.33 8332.93 1699.8C8364.66 1713.8 8393.13 1732.93 8418.33 1757.2C8443.53 1780.53 8462.66 1809 8475.73 1842.6C8479.46 1851 8482.26 1861.27 8484.13 1873.4C8486.93 1885.53 8488.79 1898.6 8489.73 1912.6C8490.66 1925.67 8490.66 1938.73 8489.73 1951.8C8488.79 1964.87 8486.46 1976.53 8482.73 1986.8C8477.13 2003.6 8470.13 2016.67 8461.73 2026C8453.33 2035.33 8442.59 2042.33 8429.53 2047C8416.46 2051.67 8400.59 2054.93 8381.93 2056.8C8364.19 2057.73 8342.73 2058.67 8317.53 2059.6C8295.13 2060.53 8274.13 2061 8254.53 2061C8234.93 2061 8214.86 2061 8194.33 2061C8173.79 2060.07 8152.33 2059.6 8129.93 2059.6C8108.46 2058.67 8084.19 2057.73 8057.13 2056.8C8054.33 2075.47 8056.66 2091.8 8064.13 2105.8C8072.53 2118.87 8083.73 2130.07 8097.73 2139.4C8111.73 2147.8 8127.59 2154.33 8145.33 2159C8163.06 2163.67 8180.33 2166.47 8197.13 2167.4C8228.86 2169.27 8259.19 2166.93 8288.13 2160.4C8317.06 2152.93 8346.93 2144.53 8377.73 2135.2ZM8317.53 1863.6C8299.79 1843.07 8281.13 1828.13 8261.53 1818.8C8246.59 1812.27 8230.73 1809.47 8213.93 1810.4C8198.06 1810.4 8182.66 1812.73 8167.73 1817.4C8140.66 1823.93 8117.79 1837.93 8099.13 1859.4C8097.26 1861.27 8093.99 1865.93 8089.33 1873.4C8084.66 1879.93 8079.99 1886.93 8075.33 1894.4C8071.59 1901.87 8068.79 1908.87 8066.93 1915.4C8065.06 1921.93 8065.99 1925.2 8069.73 1925.2H8344.13C8343.19 1912.13 8340.86 1901.4 8337.13 1893C8333.39 1883.67 8326.86 1873.87 8317.53 1863.6ZM8633.7 1345.6C8644.9 1340 8657.5 1336.73 8671.5 1335.8C8685.5 1333.93 8700.43 1333 8716.3 1333H9223.1C9236.17 1333 9250.17 1332.53 9265.1 1331.6C9280.03 1330.67 9293.57 1333.47 9305.7 1340C9322.5 1349.33 9332.3 1364.27 9335.1 1384.8C9337.9 1404.4 9336.03 1426.8 9329.5 1452C9323.9 1476.27 9315.03 1502.4 9302.9 1530.4C9290.77 1557.47 9278.17 1583.6 9265.1 1608.8C9252.03 1633.07 9239.43 1655.47 9227.3 1676C9215.17 1695.6 9206.77 1710.53 9202.1 1720.8C9187.17 1748.8 9173.17 1774.47 9160.1 1797.8C9147.97 1821.13 9135.83 1844.47 9123.7 1867.8C9112.5 1891.13 9100.37 1914.47 9087.3 1937.8C9075.17 1961.13 9061.63 1986.8 9046.7 2014.8C9028.03 2053.07 9006.57 2093.2 8982.3 2135.2C8958.97 2176.27 8936.57 2215 8915.1 2251.4C8908.57 2262.6 8901.1 2273.8 8892.7 2285C8884.3 2296.2 8874.5 2305.53 8863.3 2313C8853.03 2320.47 8840.9 2325.13 8826.9 2327C8813.83 2328.87 8799.37 2326.07 8783.5 2318.6C8759.23 2305.53 8743.37 2286.4 8735.9 2261.2C8729.37 2236 8731.7 2212.67 8742.9 2191.2C8760.63 2159.47 8777.9 2127.73 8794.7 2096C8811.5 2063.33 8828.3 2031.13 8845.1 1999.4C8870.3 1951.8 8893.63 1906.07 8915.1 1862.2C8937.5 1818.33 8961.3 1772.6 8986.5 1725C8993.97 1711 9004.23 1694.2 9017.3 1674.6C9030.37 1654.07 9042.5 1633.07 9053.7 1611.6C9065.83 1590.13 9075.17 1569.13 9081.7 1548.6C9089.17 1527.13 9091.5 1508.47 9088.7 1492.6C9056.03 1489.8 9026.17 1488.87 8999.1 1489.8C8972.97 1489.8 8944.03 1489.8 8912.3 1489.8H8776.5C8759.7 1489.8 8741.5 1490.27 8721.9 1491.2C8703.23 1492.13 8685.5 1491.2 8668.7 1488.4C8651.9 1484.67 8637.43 1477.67 8625.3 1467.4C8614.1 1457.13 8607.1 1440.33 8604.3 1417C8602.43 1397.4 8604.3 1382 8609.9 1370.8C8615.5 1359.6 8623.43 1351.2 8633.7 1345.6ZM9615.75 1645.2C9601.75 1666.67 9584.95 1679.73 9565.35 1684.4C9546.69 1689.07 9528.49 1687.67 9510.75 1680.2C9493.02 1672.73 9478.09 1660.6 9465.95 1643.8C9454.75 1626.07 9450.09 1606 9451.95 1583.6C9452.89 1568.67 9456.62 1552.33 9463.15 1534.6C9469.69 1516.87 9477.62 1500.07 9486.95 1484.2C9497.22 1467.4 9507.95 1452 9519.15 1438C9531.29 1423.07 9543.42 1410.47 9555.55 1400.2C9577.95 1382.47 9603.15 1367.07 9631.15 1354C9660.09 1340.93 9689.95 1331.13 9720.75 1324.6C9752.49 1318.07 9783.75 1315.27 9814.55 1316.2C9846.29 1317.13 9875.69 1321.8 9902.75 1330.2C9977.42 1353.53 10035.3 1390.4 10076.4 1440.8C10117.4 1491.2 10138 1556.53 10138 1636.8C10138 1675.07 10134.2 1709.6 10126.8 1740.4C10120.2 1770.27 10108.1 1799.2 10090.4 1827.2C10073.6 1855.2 10050.7 1883.67 10021.8 1912.6C9993.75 1941.53 9958.75 1973.27 9916.75 2007.8C9902.75 2019.93 9888.29 2032.07 9873.35 2044.2C9858.42 2056.33 9843.49 2068.47 9828.55 2080.6C9823.89 2084.33 9815.02 2089.93 9801.95 2097.4C9788.89 2104.87 9777.22 2112.33 9766.95 2119.8C9756.69 2127.27 9750.62 2134.27 9748.75 2140.8C9746.89 2147.33 9754.35 2151.07 9771.15 2152C9791.69 2153.87 9808.02 2154.33 9820.15 2153.4C9832.29 2152.47 9848.62 2152 9869.15 2152C9893.42 2152 9917.22 2151.53 9940.55 2150.6C9963.89 2149.67 9987.22 2150.13 10010.6 2152C10019.9 2152.93 10030.2 2153.4 10041.4 2153.4C10052.6 2152.47 10063.8 2152.47 10075 2153.4C10086.2 2153.4 10096.9 2154.8 10107.2 2157.6C10117.4 2159.47 10126.3 2163.67 10133.8 2170.2C10141.2 2176.73 10146.8 2185.6 10150.6 2196.8C10154.3 2208 10156.2 2220.13 10156.2 2233.2C10157.1 2245.33 10156.2 2257.47 10153.4 2269.6C10150.6 2280.8 10145.9 2289.67 10139.4 2296.2C10127.2 2310.2 10112.3 2317.2 10094.6 2317.2C10076.8 2316.27 10060 2315.8 10044.2 2315.8H9541.55C9532.22 2315.8 9521.95 2316.27 9510.75 2317.2C9500.49 2318.13 9491.15 2317.2 9482.75 2314.4C9465.95 2309.73 9457.55 2300.87 9457.55 2287.8C9458.49 2274.73 9458.95 2261.2 9458.95 2247.2C9458.95 2223.87 9464.55 2202.4 9475.75 2182.8C9486.95 2162.27 9500.95 2143.6 9517.75 2126.8C9535.49 2109.07 9554.15 2092.73 9573.75 2077.8C9593.35 2062.87 9611.55 2048.4 9628.35 2034.4C9652.62 2012.93 9678.75 1991.47 9706.75 1970C9734.75 1948.53 9761.35 1927.07 9786.55 1905.6C9819.22 1878.53 9846.75 1853.8 9869.15 1831.4C9892.49 1809 9911.15 1788 9925.15 1768.4C9939.15 1748.8 9949.42 1729.67 9955.95 1711C9962.49 1691.4 9965.75 1670.87 9965.75 1649.4C9965.75 1601.8 9951.29 1565.4 9922.35 1540.2C9893.42 1514.07 9856.55 1501 9811.75 1501C9779.09 1501 9748.29 1508 9719.35 1522C9691.35 1536 9668.02 1556.53 9649.35 1583.6C9643.75 1593.87 9638.15 1604.6 9632.55 1615.8C9627.89 1626.07 9622.29 1635.87 9615.75 1645.2Z" fill="#604AEC"/>
</svg>
